<svg xmlns="http://www.w3.org/2000/svg" xmlns:xlink="http://www.w3.org/1999/xlink" width="40" zoomAndPan="magnify" viewBox="0 0 30 30.000001" height="40" preserveAspectRatio="xMidYMid meet" version="1.0"><defs><clipPath id="172d755808"><path d="M 0.484375 0 L 29.515625 0 L 29.515625 29.03125 L 0.484375 29.03125 Z M 0.484375 0 " clip-rule="nonzero"/></clipPath></defs><g clip-path="url(#172d755808)"><path fill="#ffffff" d="M 0.484375 0 L 29.515625 0 L 29.515625 36.289062 L 0.484375 36.289062 Z M 0.484375 0 " fill-opacity="1" fill-rule="nonzero"/><path fill="#ffffff" d="M 0.484375 0 L 29.515625 0 L 29.515625 29.03125 L 0.484375 29.03125 Z M 0.484375 0 " fill-opacity="1" fill-rule="nonzero"/><path fill="#ffffff" d="M 0.484375 0 L 29.515625 0 L 29.515625 29.03125 L 0.484375 29.03125 Z M 0.484375 0 " fill-opacity="1" fill-rule="nonzero"/><path fill="#ffffff" d="M 0.484375 0 L 29.515625 0 L 29.515625 29.03125 L 0.484375 29.03125 Z M 0.484375 0 " fill-opacity="1" fill-rule="nonzero"/></g><path stroke-linecap="butt" transform="matrix(1.16129, 0, 0, 1.16129, 0.48387, 0.00000193548)" fill-opacity="1" fill="#ffffff" fill-rule="nonzero" stroke-linejoin="miter" d="M 1.998481 2.499239 L 8.998373 2.499239 M 11.998807 2.499239 L 14.000218 2.499239 M 16.001628 2.499239 L 23.00152 2.499239 M 1.998481 3.501626 L 3.000868 3.501626 M 7.999349 3.501626 L 8.998373 3.501626 M 10.00076 3.501626 L 10.999783 3.501626 M 13.001194 3.501626 L 14.999241 3.501626 M 16.001628 3.501626 L 17.000652 3.501626 M 21.999133 3.501626 L 23.00152 3.501626 M 1.998481 4.500649 L 3.000868 4.500649 M 3.999892 4.500649 L 7.000326 4.500649 M 7.999349 4.500649 L 8.998373 4.500649 M 10.00076 4.500649 L 14.999241 4.500649 M 16.001628 4.500649 L 17.000652 4.500649 M 17.999675 4.500649 L 21.000109 4.500649 M 21.999133 4.500649 L 23.00152 4.500649 M 1.998481 5.499673 L 3.000868 5.499673 M 3.999892 5.499673 L 7.000326 5.499673 M 7.999349 5.499673 L 8.998373 5.499673 M 10.00076 5.499673 L 13.001194 5.499673 M 16.001628 5.499673 L 17.000652 5.499673 M 17.999675 5.499673 L 21.000109 5.499673 M 21.999133 5.499673 L 23.00152 5.499673 M 1.998481 6.498696 L 3.000868 6.498696 M 3.999892 6.498696 L 7.000326 6.498696 M 7.999349 6.498696 L 8.998373 6.498696 M 11.998807 6.498696 L 13.001194 6.498696 M 14.000218 6.498696 L 14.999241 6.498696 M 16.001628 6.498696 L 17.000652 6.498696 M 17.999675 6.498696 L 21.000109 6.498696 M 21.999133 6.498696 L 23.00152 6.498696 M 1.998481 7.501083 L 3.000868 7.501083 M 7.999349 7.501083 L 8.998373 7.501083 M 11.998807 7.501083 L 14.000218 7.501083 M 16.001628 7.501083 L 17.000652 7.501083 M 21.999133 7.501083 L 23.00152 7.501083 M 1.998481 8.500107 L 8.998373 8.500107 M 10.00076 8.500107 L 10.999783 8.500107 M 11.998807 8.500107 L 13.001194 8.500107 M 14.000218 8.500107 L 14.999241 8.500107 M 16.001628 8.500107 L 23.00152 8.500107 M 10.00076 9.49913 L 11.998807 9.49913 M 1.998481 10.501518 L 3.000868 10.501518 M 7.999349 10.501518 L 8.998373 10.501518 M 10.00076 10.501518 L 10.999783 10.501518 M 13.001194 10.501518 L 14.000218 10.501518 M 14.999241 10.501518 L 17.000652 10.501518 M 18.998698 10.501518 L 21.999133 10.501518 M 1.998481 11.500541 L 4.998915 11.500541 M 6.001303 11.500541 L 7.000326 11.500541 M 10.00076 11.500541 L 16.001628 11.500541 M 17.999675 11.500541 L 18.998698 11.500541 M 1.998481 12.499564 L 3.000868 12.499564 M 4.998915 12.499564 L 6.001303 12.499564 M 7.999349 12.499564 L 8.998373 12.499564 M 11.998807 12.499564 L 13.001194 12.499564 M 14.000218 12.499564 L 14.999241 12.499564 M 16.001628 12.499564 L 17.999675 12.499564 M 18.998698 12.499564 L 21.999133 12.499564 M 3.000868 13.498588 L 4.998915 13.498588 M 13.001194 13.498588 L 21.999133 13.498588 M 1.998481 14.500975 L 3.000868 14.500975 M 4.998915 14.500975 L 7.000326 14.500975 M 7.999349 14.500975 L 8.998373 14.500975 M 10.00076 14.500975 L 10.999783 14.500975 M 11.998807 14.500975 L 17.000652 14.500975 M 18.998698 14.500975 L 20.001086 14.500975 M 21.000109 14.500975 L 23.00152 14.500975 M 10.00076 15.499998 L 13.001194 15.499998 M 14.000218 15.499998 L 14.999241 15.499998 M 17.999675 15.499998 L 18.998698 15.499998 M 21.999133 15.499998 L 23.00152 15.499998 M 1.998481 16.499022 L 8.998373 16.499022 M 10.999783 16.499022 L 14.000218 16.499022 M 14.999241 16.499022 L 16.001628 16.499022 M 18.998698 16.499022 L 21.999133 16.499022 M 1.998481 17.501409 L 3.000868 17.501409 M 7.999349 17.501409 L 8.998373 17.501409 M 10.999783 17.501409 L 11.998807 17.501409 M 16.001628 17.501409 L 21.999133 17.501409 M 1.998481 18.500433 L 3.000868 18.500433 M 3.999892 18.500433 L 7.000326 18.500433 M 7.999349 18.500433 L 8.998373 18.500433 M 11.998807 18.500433 L 14.000218 18.500433 M 14.999241 18.500433 L 16.001628 18.500433 M 17.000652 18.500433 L 18.998698 18.500433 M 21.000109 18.500433 L 21.999133 18.500433 M 1.998481 19.499456 L 3.000868 19.499456 M 3.999892 19.499456 L 7.000326 19.499456 M 7.999349 19.499456 L 8.998373 19.499456 M 10.999783 19.499456 L 11.998807 19.499456 M 13.001194 19.499456 L 17.000652 19.499456 M 17.999675 19.499456 L 20.001086 19.499456 M 1.998481 20.498479 L 3.000868 20.498479 M 3.999892 20.498479 L 7.000326 20.498479 M 7.999349 20.498479 L 8.998373 20.498479 M 10.999783 20.498479 L 11.998807 20.498479 M 13.001194 20.498479 L 16.001628 20.498479 M 17.999675 20.498479 L 20.001086 20.498479 M 21.000109 20.498479 L 23.00152 20.498479 M 1.998481 21.500867 L 3.000868 21.500867 M 7.999349 21.500867 L 8.998373 21.500867 M 11.998807 21.500867 L 17.000652 21.500867 M 17.999675 21.500867 L 18.998698 21.500867 M 20.001086 21.500867 L 21.000109 21.500867 M 1.998481 22.49989 L 8.998373 22.49989 M 10.00076 22.49989 L 10.999783 22.49989 M 11.998807 22.49989 L 13.001194 22.49989 M 14.000218 22.49989 L 14.999241 22.49989 M 17.999675 22.49989 L 18.998698 22.49989 M 21.000109 22.49989 L 21.999133 22.49989 " stroke="#000000" stroke-width="1" stroke-opacity="1" stroke-miterlimit="4"/></svg>